<mxfile host="Electron" agent="Mozilla/5.0 (Windows NT 10.0; Win64; x64) AppleWebKit/537.36 (KHTML, like Gecko) draw.io/24.7.8 Chrome/128.0.6613.36 Electron/32.0.1 Safari/537.36" version="24.7.8">
  <diagram name="Page-1" id="9f46799a-70d6-7492-0946-bef42562c5a5">
    <mxGraphModel dx="1830" dy="2230" grid="1" gridSize="10" guides="1" tooltips="1" connect="1" arrows="1" fold="1" page="1" pageScale="1" pageWidth="1100" pageHeight="850" background="none" math="0" shadow="0">
      <root>
        <mxCell id="0" />
        <mxCell id="1" parent="0" />
        <mxCell id="1HcElYViuS3CACR91JE5-3" value="LAYERSTACK" style="swimlane;fontStyle=0;childLayout=stackLayout;horizontal=1;startSize=30;horizontalStack=0;resizeParent=1;resizeParentMax=0;resizeLast=0;collapsible=1;marginBottom=0;whiteSpace=wrap;html=1;" vertex="1" parent="1">
          <mxGeometry x="410" y="170" width="160" height="150" as="geometry" />
        </mxCell>
        <mxCell id="1HcElYViuS3CACR91JE5-22" value="LAYER" style="swimlane;fontStyle=0;childLayout=stackLayout;horizontal=1;startSize=30;horizontalStack=0;resizeParent=1;resizeParentMax=0;resizeLast=0;collapsible=1;marginBottom=0;whiteSpace=wrap;html=1;" vertex="1" parent="1HcElYViuS3CACR91JE5-3">
          <mxGeometry y="30" width="160" height="120" as="geometry" />
        </mxCell>
        <mxCell id="1HcElYViuS3CACR91JE5-23" value="ON ATTACH()" style="text;strokeColor=none;fillColor=none;align=left;verticalAlign=middle;spacingLeft=4;spacingRight=4;overflow=hidden;points=[[0,0.5],[1,0.5]];portConstraint=eastwest;rotatable=0;whiteSpace=wrap;html=1;" vertex="1" parent="1HcElYViuS3CACR91JE5-22">
          <mxGeometry y="30" width="160" height="30" as="geometry" />
        </mxCell>
        <mxCell id="1HcElYViuS3CACR91JE5-24" value="ON UPDATE()" style="text;strokeColor=none;fillColor=none;align=left;verticalAlign=middle;spacingLeft=4;spacingRight=4;overflow=hidden;points=[[0,0.5],[1,0.5]];portConstraint=eastwest;rotatable=0;whiteSpace=wrap;html=1;" vertex="1" parent="1HcElYViuS3CACR91JE5-22">
          <mxGeometry y="60" width="160" height="30" as="geometry" />
        </mxCell>
        <mxCell id="1HcElYViuS3CACR91JE5-25" value="ON EVENT()" style="text;strokeColor=none;fillColor=none;align=left;verticalAlign=middle;spacingLeft=4;spacingRight=4;overflow=hidden;points=[[0,0.5],[1,0.5]];portConstraint=eastwest;rotatable=0;whiteSpace=wrap;html=1;" vertex="1" parent="1HcElYViuS3CACR91JE5-22">
          <mxGeometry y="90" width="160" height="30" as="geometry" />
        </mxCell>
        <mxCell id="1HcElYViuS3CACR91JE5-7" value="ZYKLON GAME ENGINE" style="rounded=0;whiteSpace=wrap;html=1;fontSize=21;fontStyle=1" vertex="1" parent="1">
          <mxGeometry x="20" y="-360" width="270" height="130" as="geometry" />
        </mxCell>
        <mxCell id="1HcElYViuS3CACR91JE5-16" value="APPLICATION" style="swimlane;fontStyle=0;childLayout=stackLayout;horizontal=1;startSize=30;horizontalStack=0;resizeParent=1;resizeParentMax=0;resizeLast=0;collapsible=1;marginBottom=0;whiteSpace=wrap;html=1;" vertex="1" parent="1">
          <mxGeometry x="410" y="20" width="160" height="120" as="geometry" />
        </mxCell>
        <mxCell id="1HcElYViuS3CACR91JE5-122" value="LAYERS" style="swimlane;fontStyle=0;childLayout=stackLayout;horizontal=1;startSize=30;horizontalStack=0;resizeParent=1;resizeParentMax=0;resizeLast=0;collapsible=1;marginBottom=0;whiteSpace=wrap;html=1;" vertex="1" parent="1HcElYViuS3CACR91JE5-16">
          <mxGeometry y="30" width="160" height="90" as="geometry" />
        </mxCell>
        <mxCell id="1HcElYViuS3CACR91JE5-123" value="IMGUI LAYER" style="text;strokeColor=none;fillColor=none;align=left;verticalAlign=middle;spacingLeft=4;spacingRight=4;overflow=hidden;points=[[0,0.5],[1,0.5]];portConstraint=eastwest;rotatable=0;whiteSpace=wrap;html=1;" vertex="1" parent="1HcElYViuS3CACR91JE5-122">
          <mxGeometry y="30" width="160" height="30" as="geometry" />
        </mxCell>
        <mxCell id="1HcElYViuS3CACR91JE5-124" value="PROJECT LAYER" style="text;strokeColor=none;fillColor=none;align=left;verticalAlign=middle;spacingLeft=4;spacingRight=4;overflow=hidden;points=[[0,0.5],[1,0.5]];portConstraint=eastwest;rotatable=0;whiteSpace=wrap;html=1;" vertex="1" parent="1HcElYViuS3CACR91JE5-122">
          <mxGeometry y="60" width="160" height="30" as="geometry" />
        </mxCell>
        <mxCell id="1HcElYViuS3CACR91JE5-49" style="edgeStyle=orthogonalEdgeStyle;rounded=0;orthogonalLoop=1;jettySize=auto;html=1;entryX=0.5;entryY=0;entryDx=0;entryDy=0;" edge="1" parent="1" source="1HcElYViuS3CACR91JE5-42" target="1HcElYViuS3CACR91JE5-16">
          <mxGeometry relative="1" as="geometry" />
        </mxCell>
        <mxCell id="1HcElYViuS3CACR91JE5-42" value="ENTRYPOINT&lt;div&gt;(MAIN FUNCTION)&lt;/div&gt;" style="rounded=1;whiteSpace=wrap;html=1;" vertex="1" parent="1">
          <mxGeometry x="415" y="-100" width="150" height="40" as="geometry" />
        </mxCell>
        <mxCell id="1HcElYViuS3CACR91JE5-50" value="&lt;b style=&quot;font-size: 15px;&quot;&gt;LIBRARIES&lt;/b&gt;" style="swimlane;fontStyle=0;childLayout=stackLayout;horizontal=1;startSize=30;horizontalStack=0;resizeParent=1;resizeParentMax=0;resizeLast=0;collapsible=1;marginBottom=0;whiteSpace=wrap;html=1;fontSize=15;" vertex="1" parent="1">
          <mxGeometry x="860" y="-360" width="210" height="360" as="geometry" />
        </mxCell>
        <mxCell id="1HcElYViuS3CACR91JE5-77" value="platform" style="swimlane;fontStyle=2;childLayout=stackLayout;horizontal=1;startSize=30;horizontalStack=0;resizeParent=1;resizeParentMax=0;resizeLast=0;collapsible=1;marginBottom=0;whiteSpace=wrap;html=1;fontSize=14;" vertex="1" parent="1HcElYViuS3CACR91JE5-50">
          <mxGeometry y="30" width="210" height="60" as="geometry" />
        </mxCell>
        <mxCell id="1HcElYViuS3CACR91JE5-78" value="glfw" style="text;strokeColor=none;fillColor=none;align=left;verticalAlign=middle;spacingLeft=4;spacingRight=4;overflow=hidden;points=[[0,0.5],[1,0.5]];portConstraint=eastwest;rotatable=0;whiteSpace=wrap;html=1;fontSize=17;" vertex="1" parent="1HcElYViuS3CACR91JE5-77">
          <mxGeometry y="30" width="210" height="30" as="geometry" />
        </mxCell>
        <mxCell id="1HcElYViuS3CACR91JE5-65" value="graphics" style="swimlane;fontStyle=2;childLayout=stackLayout;horizontal=1;startSize=30;horizontalStack=0;resizeParent=1;resizeParentMax=0;resizeLast=0;collapsible=1;marginBottom=0;whiteSpace=wrap;html=1;" vertex="1" parent="1HcElYViuS3CACR91JE5-50">
          <mxGeometry y="90" width="210" height="180" as="geometry">
            <mxRectangle y="30" width="140" height="30" as="alternateBounds" />
          </mxGeometry>
        </mxCell>
        <mxCell id="1HcElYViuS3CACR91JE5-67" value="glad" style="text;strokeColor=none;fillColor=none;align=left;verticalAlign=middle;spacingLeft=4;spacingRight=4;overflow=hidden;points=[[0,0.5],[1,0.5]];portConstraint=eastwest;rotatable=0;whiteSpace=wrap;html=1;fontSize=16;" vertex="1" parent="1HcElYViuS3CACR91JE5-65">
          <mxGeometry y="30" width="210" height="30" as="geometry" />
        </mxCell>
        <mxCell id="1HcElYViuS3CACR91JE5-66" value="glm" style="text;strokeColor=none;fillColor=none;align=left;verticalAlign=middle;spacingLeft=4;spacingRight=4;overflow=hidden;points=[[0,0.5],[1,0.5]];portConstraint=eastwest;rotatable=0;whiteSpace=wrap;html=1;fontSize=16;" vertex="1" parent="1HcElYViuS3CACR91JE5-65">
          <mxGeometry y="60" width="210" height="30" as="geometry" />
        </mxCell>
        <mxCell id="1HcElYViuS3CACR91JE5-81" value="&amp;nbsp;imgui" style="text;html=1;align=left;verticalAlign=middle;whiteSpace=wrap;rounded=0;fontSize=16;" vertex="1" parent="1HcElYViuS3CACR91JE5-65">
          <mxGeometry y="90" width="210" height="30" as="geometry" />
        </mxCell>
        <mxCell id="1HcElYViuS3CACR91JE5-73" value="math" style="swimlane;fontStyle=2;childLayout=stackLayout;horizontal=1;startSize=30;horizontalStack=0;resizeParent=1;resizeParentMax=0;resizeLast=0;collapsible=1;marginBottom=0;whiteSpace=wrap;html=1;" vertex="1" parent="1HcElYViuS3CACR91JE5-65">
          <mxGeometry y="120" width="210" height="60" as="geometry">
            <mxRectangle y="30" width="140" height="30" as="alternateBounds" />
          </mxGeometry>
        </mxCell>
        <mxCell id="1HcElYViuS3CACR91JE5-74" value="glm" style="text;strokeColor=none;fillColor=none;align=left;verticalAlign=middle;spacingLeft=4;spacingRight=4;overflow=hidden;points=[[0,0.5],[1,0.5]];portConstraint=eastwest;rotatable=0;whiteSpace=wrap;html=1;fontSize=16;" vertex="1" parent="1HcElYViuS3CACR91JE5-73">
          <mxGeometry y="30" width="210" height="30" as="geometry" />
        </mxCell>
        <mxCell id="1HcElYViuS3CACR91JE5-57" value="Info" style="swimlane;fontStyle=2;childLayout=stackLayout;horizontal=1;startSize=30;horizontalStack=0;resizeParent=1;resizeParentMax=0;resizeLast=0;collapsible=1;marginBottom=0;whiteSpace=wrap;html=1;" vertex="1" parent="1HcElYViuS3CACR91JE5-50">
          <mxGeometry y="270" width="210" height="90" as="geometry" />
        </mxCell>
        <mxCell id="1HcElYViuS3CACR91JE5-63" value="spdlog" style="text;strokeColor=none;fillColor=none;align=left;verticalAlign=middle;spacingLeft=4;spacingRight=4;overflow=hidden;points=[[0,0.5],[1,0.5]];portConstraint=eastwest;rotatable=0;whiteSpace=wrap;html=1;fontSize=16;" vertex="1" parent="1HcElYViuS3CACR91JE5-57">
          <mxGeometry y="30" width="210" height="30" as="geometry" />
        </mxCell>
        <mxCell id="1HcElYViuS3CACR91JE5-64" value="zyklon profiler" style="text;strokeColor=none;fillColor=none;align=left;verticalAlign=middle;spacingLeft=4;spacingRight=4;overflow=hidden;points=[[0,0.5],[1,0.5]];portConstraint=eastwest;rotatable=0;whiteSpace=wrap;html=1;fontSize=16;" vertex="1" parent="1HcElYViuS3CACR91JE5-57">
          <mxGeometry y="60" width="210" height="30" as="geometry" />
        </mxCell>
        <mxCell id="1HcElYViuS3CACR91JE5-85" value="PLATFORM" style="swimlane;fontStyle=0;childLayout=stackLayout;horizontal=1;startSize=30;horizontalStack=0;resizeParent=1;resizeParentMax=0;resizeLast=0;collapsible=1;marginBottom=0;whiteSpace=wrap;html=1;" vertex="1" parent="1">
          <mxGeometry x="200" y="35" width="140" height="90" as="geometry" />
        </mxCell>
        <mxCell id="1HcElYViuS3CACR91JE5-86" value="WINDOW" style="text;strokeColor=none;fillColor=none;align=left;verticalAlign=middle;spacingLeft=4;spacingRight=4;overflow=hidden;points=[[0,0.5],[1,0.5]];portConstraint=eastwest;rotatable=0;whiteSpace=wrap;html=1;" vertex="1" parent="1HcElYViuS3CACR91JE5-85">
          <mxGeometry y="30" width="140" height="30" as="geometry" />
        </mxCell>
        <mxCell id="1HcElYViuS3CACR91JE5-87" value="INPUT" style="text;strokeColor=none;fillColor=none;align=left;verticalAlign=middle;spacingLeft=4;spacingRight=4;overflow=hidden;points=[[0,0.5],[1,0.5]];portConstraint=eastwest;rotatable=0;whiteSpace=wrap;html=1;" vertex="1" parent="1HcElYViuS3CACR91JE5-85">
          <mxGeometry y="60" width="140" height="30" as="geometry" />
        </mxCell>
        <mxCell id="1HcElYViuS3CACR91JE5-93" value="EVENT DISPATCHER" style="swimlane;fontStyle=0;childLayout=stackLayout;horizontal=1;startSize=20;horizontalStack=0;resizeParent=1;resizeParentMax=0;resizeLast=0;collapsible=1;marginBottom=0;whiteSpace=wrap;html=1;" vertex="1" parent="1">
          <mxGeometry x="200" y="170" width="140" height="140" as="geometry" />
        </mxCell>
        <mxCell id="1HcElYViuS3CACR91JE5-94" value="KEY" style="text;strokeColor=none;fillColor=none;align=left;verticalAlign=middle;spacingLeft=4;spacingRight=4;overflow=hidden;points=[[0,0.5],[1,0.5]];portConstraint=eastwest;rotatable=0;whiteSpace=wrap;html=1;" vertex="1" parent="1HcElYViuS3CACR91JE5-93">
          <mxGeometry y="20" width="140" height="30" as="geometry" />
        </mxCell>
        <mxCell id="1HcElYViuS3CACR91JE5-95" value="MOUSE" style="text;strokeColor=none;fillColor=none;align=left;verticalAlign=middle;spacingLeft=4;spacingRight=4;overflow=hidden;points=[[0,0.5],[1,0.5]];portConstraint=eastwest;rotatable=0;whiteSpace=wrap;html=1;" vertex="1" parent="1HcElYViuS3CACR91JE5-93">
          <mxGeometry y="50" width="140" height="30" as="geometry" />
        </mxCell>
        <mxCell id="1HcElYViuS3CACR91JE5-140" value="&amp;nbsp;APPLICATION" style="text;html=1;align=left;verticalAlign=middle;whiteSpace=wrap;rounded=0;" vertex="1" parent="1HcElYViuS3CACR91JE5-93">
          <mxGeometry y="80" width="140" height="30" as="geometry" />
        </mxCell>
        <mxCell id="1HcElYViuS3CACR91JE5-141" value="&amp;nbsp;WINDOW" style="text;html=1;align=left;verticalAlign=middle;whiteSpace=wrap;rounded=0;" vertex="1" parent="1HcElYViuS3CACR91JE5-93">
          <mxGeometry y="110" width="140" height="30" as="geometry" />
        </mxCell>
        <mxCell id="1HcElYViuS3CACR91JE5-111" value="GRAPHICS API" style="swimlane;fontStyle=0;childLayout=stackLayout;horizontal=1;startSize=30;horizontalStack=0;resizeParent=1;resizeParentMax=0;resizeLast=0;collapsible=1;marginBottom=0;whiteSpace=wrap;html=1;" vertex="1" parent="1">
          <mxGeometry x="40" y="310" width="140" height="60" as="geometry" />
        </mxCell>
        <mxCell id="1HcElYViuS3CACR91JE5-113" value="GRAPHICS CONTEXT" style="text;strokeColor=none;fillColor=none;align=left;verticalAlign=middle;spacingLeft=4;spacingRight=4;overflow=hidden;points=[[0,0.5],[1,0.5]];portConstraint=eastwest;rotatable=0;whiteSpace=wrap;html=1;" vertex="1" parent="1HcElYViuS3CACR91JE5-111">
          <mxGeometry y="30" width="140" height="30" as="geometry" />
        </mxCell>
        <mxCell id="1HcElYViuS3CACR91JE5-117" value="RENDERER" style="swimlane;fontStyle=0;childLayout=stackLayout;horizontal=1;startSize=30;horizontalStack=0;resizeParent=1;resizeParentMax=0;resizeLast=0;collapsible=1;marginBottom=0;whiteSpace=wrap;html=1;" vertex="1" parent="1">
          <mxGeometry x="660" y="190" width="140" height="120" as="geometry" />
        </mxCell>
        <mxCell id="1HcElYViuS3CACR91JE5-119" value="SUBMIT" style="text;strokeColor=none;fillColor=none;align=left;verticalAlign=middle;spacingLeft=4;spacingRight=4;overflow=hidden;points=[[0,0.5],[1,0.5]];portConstraint=eastwest;rotatable=0;whiteSpace=wrap;html=1;" vertex="1" parent="1HcElYViuS3CACR91JE5-117">
          <mxGeometry y="30" width="140" height="30" as="geometry" />
        </mxCell>
        <mxCell id="1HcElYViuS3CACR91JE5-118" value="BEGIN SCENE" style="text;strokeColor=none;fillColor=none;align=left;verticalAlign=middle;spacingLeft=4;spacingRight=4;overflow=hidden;points=[[0,0.5],[1,0.5]];portConstraint=eastwest;rotatable=0;whiteSpace=wrap;html=1;" vertex="1" parent="1HcElYViuS3CACR91JE5-117">
          <mxGeometry y="60" width="140" height="30" as="geometry" />
        </mxCell>
        <mxCell id="1HcElYViuS3CACR91JE5-180" value="&amp;nbsp;END SCENE" style="text;html=1;align=left;verticalAlign=middle;whiteSpace=wrap;rounded=0;" vertex="1" parent="1HcElYViuS3CACR91JE5-117">
          <mxGeometry y="90" width="140" height="30" as="geometry" />
        </mxCell>
        <mxCell id="1HcElYViuS3CACR91JE5-189" style="edgeStyle=orthogonalEdgeStyle;rounded=0;orthogonalLoop=1;jettySize=auto;html=1;entryX=0.5;entryY=0;entryDx=0;entryDy=0;" edge="1" parent="1" source="1HcElYViuS3CACR91JE5-142" target="1HcElYViuS3CACR91JE5-176">
          <mxGeometry relative="1" as="geometry" />
        </mxCell>
        <mxCell id="1HcElYViuS3CACR91JE5-142" value="RENDERER API" style="swimlane;fontStyle=0;childLayout=stackLayout;horizontal=1;startSize=30;horizontalStack=0;resizeParent=1;resizeParentMax=0;resizeLast=0;collapsible=1;marginBottom=0;whiteSpace=wrap;html=1;" vertex="1" parent="1">
          <mxGeometry x="325" y="390" width="330" height="120" as="geometry" />
        </mxCell>
        <mxCell id="1HcElYViuS3CACR91JE5-143" value="OPENGL" style="text;strokeColor=none;fillColor=none;align=left;verticalAlign=middle;spacingLeft=4;spacingRight=4;overflow=hidden;points=[[0,0.5],[1,0.5]];portConstraint=eastwest;rotatable=0;whiteSpace=wrap;html=1;" vertex="1" parent="1HcElYViuS3CACR91JE5-142">
          <mxGeometry y="30" width="330" height="30" as="geometry" />
        </mxCell>
        <mxCell id="1HcElYViuS3CACR91JE5-144" value="VULKAN (OMITTED)" style="text;strokeColor=none;fillColor=none;align=left;verticalAlign=middle;spacingLeft=4;spacingRight=4;overflow=hidden;points=[[0,0.5],[1,0.5]];portConstraint=eastwest;rotatable=0;whiteSpace=wrap;html=1;" vertex="1" parent="1HcElYViuS3CACR91JE5-142">
          <mxGeometry y="60" width="330" height="30" as="geometry" />
        </mxCell>
        <mxCell id="1HcElYViuS3CACR91JE5-145" value="DIRECTX (OMITTED)" style="text;strokeColor=none;fillColor=none;align=left;verticalAlign=middle;spacingLeft=4;spacingRight=4;overflow=hidden;points=[[0,0.5],[1,0.5]];portConstraint=eastwest;rotatable=0;whiteSpace=wrap;html=1;" vertex="1" parent="1HcElYViuS3CACR91JE5-142">
          <mxGeometry y="90" width="330" height="30" as="geometry" />
        </mxCell>
        <mxCell id="1HcElYViuS3CACR91JE5-146" value="RENDER COMMAND" style="swimlane;fontStyle=0;childLayout=stackLayout;horizontal=1;startSize=30;horizontalStack=0;resizeParent=1;resizeParentMax=0;resizeLast=0;collapsible=1;marginBottom=0;whiteSpace=wrap;html=1;" vertex="1" parent="1">
          <mxGeometry x="770" y="335" width="140" height="90" as="geometry" />
        </mxCell>
        <mxCell id="1HcElYViuS3CACR91JE5-147" value="DRAW ARRAYS" style="text;strokeColor=none;fillColor=none;align=left;verticalAlign=middle;spacingLeft=4;spacingRight=4;overflow=hidden;points=[[0,0.5],[1,0.5]];portConstraint=eastwest;rotatable=0;whiteSpace=wrap;html=1;" vertex="1" parent="1HcElYViuS3CACR91JE5-146">
          <mxGeometry y="30" width="140" height="30" as="geometry" />
        </mxCell>
        <mxCell id="1HcElYViuS3CACR91JE5-148" value="DRAW INDEXED" style="text;strokeColor=none;fillColor=none;align=left;verticalAlign=middle;spacingLeft=4;spacingRight=4;overflow=hidden;points=[[0,0.5],[1,0.5]];portConstraint=eastwest;rotatable=0;whiteSpace=wrap;html=1;" vertex="1" parent="1HcElYViuS3CACR91JE5-146">
          <mxGeometry y="60" width="140" height="30" as="geometry" />
        </mxCell>
        <mxCell id="1HcElYViuS3CACR91JE5-161" style="edgeStyle=orthogonalEdgeStyle;rounded=0;orthogonalLoop=1;jettySize=auto;html=1;entryX=-0.001;entryY=0.099;entryDx=0;entryDy=0;entryPerimeter=0;" edge="1" parent="1" source="1HcElYViuS3CACR91JE5-93" target="1HcElYViuS3CACR91JE5-22">
          <mxGeometry relative="1" as="geometry" />
        </mxCell>
        <mxCell id="1HcElYViuS3CACR91JE5-165" style="edgeStyle=orthogonalEdgeStyle;rounded=0;orthogonalLoop=1;jettySize=auto;html=1;entryX=0.5;entryY=0;entryDx=0;entryDy=0;" edge="1" parent="1" source="1HcElYViuS3CACR91JE5-122" target="1HcElYViuS3CACR91JE5-3">
          <mxGeometry relative="1" as="geometry" />
        </mxCell>
        <mxCell id="1HcElYViuS3CACR91JE5-172" style="edgeStyle=orthogonalEdgeStyle;rounded=0;orthogonalLoop=1;jettySize=auto;html=1;exitX=0;exitY=0.25;exitDx=0;exitDy=0;" edge="1" parent="1" source="1HcElYViuS3CACR91JE5-122">
          <mxGeometry relative="1" as="geometry">
            <mxPoint x="340" y="49" as="targetPoint" />
          </mxGeometry>
        </mxCell>
        <mxCell id="1HcElYViuS3CACR91JE5-174" style="edgeStyle=orthogonalEdgeStyle;rounded=0;orthogonalLoop=1;jettySize=auto;html=1;entryX=0.444;entryY=0.061;entryDx=0;entryDy=0;entryPerimeter=0;" edge="1" parent="1" source="1HcElYViuS3CACR91JE5-86" target="1HcElYViuS3CACR91JE5-111">
          <mxGeometry relative="1" as="geometry" />
        </mxCell>
        <mxCell id="1HcElYViuS3CACR91JE5-176" value="&lt;b&gt;RENDERER ARCHITECTURE&lt;/b&gt;&lt;div style=&quot;line-height: 120%;&quot;&gt;&lt;b&gt;GRAPHICS API DEPENDENT&lt;/b&gt;&lt;/div&gt;" style="swimlane;fontStyle=0;childLayout=stackLayout;horizontal=1;startSize=20;horizontalStack=0;resizeParent=1;resizeParentMax=0;resizeLast=0;collapsible=1;marginBottom=0;whiteSpace=wrap;html=1;" vertex="1" parent="1">
          <mxGeometry x="210" y="550" width="560" height="140" as="geometry" />
        </mxCell>
        <mxCell id="1HcElYViuS3CACR91JE5-177" value="BUFFER" style="text;strokeColor=none;fillColor=none;align=left;verticalAlign=middle;spacingLeft=4;spacingRight=4;overflow=hidden;points=[[0,0.5],[1,0.5]];portConstraint=eastwest;rotatable=0;whiteSpace=wrap;html=1;" vertex="1" parent="1HcElYViuS3CACR91JE5-176">
          <mxGeometry y="20" width="560" height="30" as="geometry" />
        </mxCell>
        <mxCell id="1HcElYViuS3CACR91JE5-178" value="VERTEX ARRAY" style="text;strokeColor=none;fillColor=none;align=left;verticalAlign=middle;spacingLeft=4;spacingRight=4;overflow=hidden;points=[[0,0.5],[1,0.5]];portConstraint=eastwest;rotatable=0;whiteSpace=wrap;html=1;" vertex="1" parent="1HcElYViuS3CACR91JE5-176">
          <mxGeometry y="50" width="560" height="30" as="geometry" />
        </mxCell>
        <mxCell id="1HcElYViuS3CACR91JE5-179" value="SHADER" style="text;strokeColor=none;fillColor=none;align=left;verticalAlign=middle;spacingLeft=4;spacingRight=4;overflow=hidden;points=[[0,0.5],[1,0.5]];portConstraint=eastwest;rotatable=0;whiteSpace=wrap;html=1;" vertex="1" parent="1HcElYViuS3CACR91JE5-176">
          <mxGeometry y="80" width="560" height="30" as="geometry" />
        </mxCell>
        <mxCell id="1HcElYViuS3CACR91JE5-191" value="&amp;nbsp;INDEX BUFFER" style="text;html=1;align=left;verticalAlign=middle;whiteSpace=wrap;rounded=0;" vertex="1" parent="1HcElYViuS3CACR91JE5-176">
          <mxGeometry y="110" width="560" height="30" as="geometry" />
        </mxCell>
        <mxCell id="1HcElYViuS3CACR91JE5-184" style="edgeStyle=orthogonalEdgeStyle;rounded=0;orthogonalLoop=1;jettySize=auto;html=1;" edge="1" parent="1" source="1HcElYViuS3CACR91JE5-113" target="1HcElYViuS3CACR91JE5-117">
          <mxGeometry relative="1" as="geometry" />
        </mxCell>
        <mxCell id="1HcElYViuS3CACR91JE5-185" style="edgeStyle=orthogonalEdgeStyle;rounded=0;orthogonalLoop=1;jettySize=auto;html=1;entryX=0.5;entryY=0;entryDx=0;entryDy=0;" edge="1" parent="1" source="1HcElYViuS3CACR91JE5-118" target="1HcElYViuS3CACR91JE5-146">
          <mxGeometry relative="1" as="geometry" />
        </mxCell>
        <mxCell id="1HcElYViuS3CACR91JE5-187" style="edgeStyle=orthogonalEdgeStyle;rounded=0;orthogonalLoop=1;jettySize=auto;html=1;entryX=1;entryY=0.111;entryDx=0;entryDy=0;entryPerimeter=0;" edge="1" parent="1" source="1HcElYViuS3CACR91JE5-146" target="1HcElYViuS3CACR91JE5-142">
          <mxGeometry relative="1" as="geometry" />
        </mxCell>
        <mxCell id="1HcElYViuS3CACR91JE5-190" style="edgeStyle=orthogonalEdgeStyle;rounded=0;orthogonalLoop=1;jettySize=auto;html=1;entryX=0.5;entryY=0;entryDx=0;entryDy=0;" edge="1" parent="1" source="1HcElYViuS3CACR91JE5-22" target="1HcElYViuS3CACR91JE5-117">
          <mxGeometry relative="1" as="geometry" />
        </mxCell>
        <mxCell id="1HcElYViuS3CACR91JE5-192" style="edgeStyle=orthogonalEdgeStyle;rounded=0;orthogonalLoop=1;jettySize=auto;html=1;entryX=0;entryY=0.5;entryDx=0;entryDy=0;" edge="1" parent="1" source="1HcElYViuS3CACR91JE5-144" target="1HcElYViuS3CACR91JE5-113">
          <mxGeometry relative="1" as="geometry" />
        </mxCell>
      </root>
    </mxGraphModel>
  </diagram>
</mxfile>
